<?xml version="1.0" encoding="utf-8"?>
<!-- Svg Vector Icons : http://www.onlinewebfonts.com/icon -->
<!DOCTYPE svg PUBLIC "-//W3C//DTD SVG 1.1//EN" "http://www.w3.org/Graphics/SVG/1.1/DTD/svg11.dtd">
<svg version="1.1" xmlns="http://www.w3.org/2000/svg" xmlns:xlink="http://www.w3.org/1999/xlink" x="0px" y="0px" viewBox="0 0 1000 1000" enable-background="new 0 0 1000 1000" xml:space="preserve">
<metadata> Svg Vector Icons : http://www.onlinewebfonts.com/icon </metadata>
<g><path d="M724,277.1l-291.2,373l-191.5-154l-52.6,67.2l253.1,203.3l3.4-4.5l341-436.2L724,277.1z M500,10C229.5,10,10,229.5,10,500c0,270.5,219.5,490,490,490s490-219.5,490-490C990,229.5,770.5,10,500,10z M500,930.6C262,930.6,69.4,738,69.4,500S262,69.4,500,69.4S930.6,262,930.6,500S738,930.6,500,930.6z M432.8,650.1l-191.5-154l-52.6,67.2l253.1,203.3l3.4-4.5l341-436.2L724,277.1L432.8,650.1z M724,277.1l-291.2,373l-191.5-154l-52.6,67.2l253.1,203.3l3.4-4.5l341-436.2L724,277.1z"/></g>
</svg>