<?xml version="1.0" encoding="utf-8"?>
<!-- Svg Vector Icons : http://www.onlinewebfonts.com/icon -->
<!DOCTYPE svg PUBLIC "-//W3C//DTD SVG 1.1//EN" "http://www.w3.org/Graphics/SVG/1.1/DTD/svg11.dtd">
<svg version="1.1" xmlns="http://www.w3.org/2000/svg" xmlns:xlink="http://www.w3.org/1999/xlink" x="0px" y="0px" viewBox="0 0 1000 1000" enable-background="new 0 0 1000 1000" xml:space="preserve">
<metadata> Svg Vector Icons : http://www.onlinewebfonts.com/icon </metadata>
<g><g><g><g><path d="M961.7,23.2c-28.7-18.9-67.4-10.8-86.3,18.1L385.6,826.5L114.6,563c-25.3-23.5-64.6-21.9-88,3.4c-23.3,25.2-21.8,64.7,3.5,88l326,317.2l2.3,1.5l4.7,4.9l8.5,3.2l10.2,4.3l10.4,1.6l15-0.2l6.1-1.4l17.4-7.3l2.8-2l10.7-7.7l5-8.2l0.3-0.4l530.4-850.3C998.7,80.7,990.7,42.1,961.7,23.2z"/></g></g></g><g></g><g></g><g></g><g></g><g></g><g></g><g></g><g></g><g></g><g></g><g></g><g></g><g></g><g></g><g></g></g>
</svg>