<?xml version="1.0" encoding="utf-8"?>
<!-- Svg Vector Icons : http://www.onlinewebfonts.com/icon -->
<!DOCTYPE svg PUBLIC "-//W3C//DTD SVG 1.1//EN" "http://www.w3.org/Graphics/SVG/1.1/DTD/svg11.dtd">
<svg version="1.1" xmlns="http://www.w3.org/2000/svg" xmlns:xlink="http://www.w3.org/1999/xlink" x="0px" y="0px" viewBox="0 0 1000 1000" enable-background="new 0 0 1000 1000" xml:space="preserve">
<metadata> Svg Vector Icons : http://www.onlinewebfonts.com/icon </metadata>
<g><path d="M958.4,498.7c-17.5,0-31.6,14.2-31.6,31.6v318.8c0,42.1-33.7,76.3-75,76.3H148.3c-41.4,0-75.1-34.2-75.1-76.3V179.7c0-42.1,33.7-76.3,75.1-76.3h340.8c17.5,0,31.6-14.2,31.6-31.6c0-17.5-14.2-31.6-31.6-31.6H148.3C72,40.2,10,102.7,10,179.7v669.4c0,76.9,62,139.5,138.3,139.5h703.4C928,988.6,990,926,990,849.1V530.3C990,512.8,975.8,498.7,958.4,498.7z"/><path d="M690.5,140L273.4,557.2c-0.2,0.2-0.4,0.5-0.6,0.7c-0.8,0.8-1.4,1.7-2.1,2.6c-0.6,0.8-1.2,1.6-1.7,2.4c-0.5,0.8-0.9,1.7-1.4,2.6c-0.5,1-1,2-1.4,3.1c-0.1,0.3-0.3,0.6-0.4,0.9l-59.6,178.8c-0.1,0.3-0.1,0.5-0.2,0.8c-0.3,1.1-0.5,2.2-0.8,3.4c-0.2,0.9-0.4,1.8-0.5,2.8c-0.1,1-0.1,2.1-0.1,3.1c0,1,0,2.1,0.1,3.1c0.1,0.9,0.3,1.9,0.5,2.8c0.2,1.1,0.4,2.2,0.7,3.3c0.1,0.3,0.1,0.5,0.2,0.8c0.1,0.3,0.3,0.6,0.5,0.9c1,2.7,2.3,5.2,3.9,7.5c0.2,0.2,0.3,0.5,0.4,0.7c1.7,2.3,3.8,4.2,6.1,5.9c0.5,0.4,1.1,0.8,1.6,1.2c2.3,1.5,4.7,2.9,7.4,3.8c0,0,0.1,0,0.1,0c3.1,1,6.5,1.6,9.8,1.6l0,0l0,0c3.4,0,6.7-0.6,9.8-1.6c0,0,0.1,0,0.2,0l178.8-59.6c0.3-0.1,0.6-0.3,0.9-0.4c1.1-0.4,2.1-0.9,3.1-1.4c0.9-0.4,1.8-0.9,2.6-1.4c0.8-0.5,1.6-1.1,2.4-1.7c0.9-0.7,1.8-1.4,2.7-2.2c0.2-0.2,0.5-0.4,0.7-0.6l417.2-417.2c0,0,0,0,0.1,0c0,0,0,0,0-0.1l119.2-119.2c12.3-12.3,12.3-32.4,0-44.7L854.5,20.7c-12.3-12.3-32.4-12.3-44.7,0L690.7,139.8c0,0-0.1,0-0.1,0.1C690.6,139.9,690.6,140,690.5,140z M832.2,87.8l74.5,74.5l-74.5,74.5l-74.5-74.5L832.2,87.8z M787.5,281.5L397.9,671.2l-111.8,37.3l37.3-111.8L713,207L787.5,281.5z"/></g>
</svg>