<?xml version="1.0" encoding="utf-8"?>
<!-- Svg Vector Icons : http://www.onlinewebfonts.com/icon -->
<!DOCTYPE svg PUBLIC "-//W3C//DTD SVG 1.1//EN" "http://www.w3.org/Graphics/SVG/1.1/DTD/svg11.dtd">
<svg version="1.1" xmlns="http://www.w3.org/2000/svg" xmlns:xlink="http://www.w3.org/1999/xlink" x="0px" y="0px" viewBox="0 0 1000 1000" enable-background="new 0 0 1000 1000" xml:space="preserve">
<metadata> Svg Vector Icons : http://www.onlinewebfonts.com/icon </metadata>
<g><path d="M258.8,454.1h482.3c19,0,34.5,20.6,34.5,45.9l0,0c0,25.4-15.4,45.9-34.5,45.9H258.8c-19,0-34.5-20.6-34.5-45.9l0,0C224.4,474.6,239.8,454.1,258.8,454.1z"/><path d="M545.9,258.8v482.3c0,19-20.5,34.5-45.9,34.5l0,0c-25.4,0-45.9-15.5-45.9-34.5V258.8c0-19,20.5-34.5,45.9-34.5l0,0C525.4,224.4,545.9,239.8,545.9,258.8z"/><path d="M990,622.5c0,203-164.5,367.5-367.5,367.5h-245C174.5,990,10,825.5,10,622.5v-245C10,174.5,174.5,10,377.5,10h245C825.5,10,990,174.5,990,377.5V622.5z M928.8,392.8c0-177.6-144-321.6-321.6-321.6H392.8c-177.6,0-321.6,144-321.6,321.6v214.4c0,177.6,144,321.6,321.6,321.6h214.4c177.6,0,321.6-144,321.6-321.6V392.8z"/></g>
</svg>